<svg xmlns="http://www.w3.org/2000/svg" viewBox="0 0 64 64" role="img" aria-label="Image Generator">
  <defs>
    <linearGradient id="bg" x1="10" y1="6" x2="54" y2="58" gradientUnits="userSpaceOnUse">
      <stop offset="0" stop-color="#061022"/>
      <stop offset="0.56" stop-color="#030612"/>
      <stop offset="1" stop-color="#07150f"/>
    </linearGradient>
    <linearGradient id="neon" x1="13" y1="15" x2="50" y2="50" gradientUnits="userSpaceOnUse">
      <stop offset="0" stop-color="#00f5ff"/>
      <stop offset="0.52" stop-color="#008cff"/>
      <stop offset="1" stop-color="#ff00aa"/>
    </linearGradient>
    <filter id="glow" x="-40%" y="-40%" width="180%" height="180%">
      <feGaussianBlur stdDeviation="2.8" result="blur"/>
      <feColorMatrix in="blur" type="matrix" values="0 0 0 0 0  0 0 0 0 0.86  0 0 0 0 1  0 0 0 0.8 0"/>
      <feMerge>
        <feMergeNode/>
        <feMergeNode in="SourceGraphic"/>
      </feMerge>
    </filter>
  </defs>

  <rect width="64" height="64" rx="14" fill="url(#bg)"/>
  <path d="M16 9h32l7 7v32l-7 7H16l-7-7V16z" fill="none" stroke="url(#neon)" stroke-width="2.5" opacity="0.9"/>
  <path d="M18 20h28M18 44h28M20 18v28M44 18v28" stroke="#00f5ff" stroke-width="1" opacity="0.13"/>

  <g filter="url(#glow)">
    <path d="M19 33.5l8.2 8.1L45 22.3" fill="none" stroke="#00ff88" stroke-width="6" stroke-linecap="round" stroke-linejoin="round"/>
    <path d="M41 13l2.4 6.2 6.6 2.3-6.6 2.3L41 30l-2.4-6.2-6.6-2.3 6.6-2.3z" fill="#ff00aa"/>
    <path d="M49 36l1.5 3.8 4 1.4-4 1.4L49 46.5l-1.5-3.9-4-1.4 4-1.4z" fill="#00f5ff"/>
  </g>

  <path d="M16 9h32l7 7" fill="none" stroke="#ffffff" stroke-width="1" opacity="0.22"/>
</svg>
